<svg xmlns="http://www.w3.org/2000/svg" width="480" height="240" viewBox="0 0 480 240">
  <rect x="0" y="0" width="480" height="240" fill="#F5F5F5" />
  <rect x="20" y="20" width="120" height="80" fill="#4196D0" />
  <rect x="160" y="20" width="120" height="80" fill="#E05555" />
  <rect x="300" y="20" width="120" height="80" fill="#59B35C" />
  <rect x="20" y="20" width="120" height="80" fill="none" stroke="#202020" stroke-width="3" />
  <path d="M 36 124 H 444 A 16 16 0 0 1 460 140 V 204 A 16 16 0 0 1 444 220 H 36 A 16 16 0 0 1 20 204 V 140 A 16 16 0 0 1 36 124 Z " fill="#A060FF" fill-rule="nonzero" />
  <path d="M 40 132 H 440 A 12 12 0 0 1 452 144 V 200 A 12 12 0 0 1 440 212 H 40 A 12 12 0 0 1 28 200 V 144 A 12 12 0 0 1 40 132 Z " fill="none" stroke="#6020CC" stroke-width="2" />
</svg>
