<svg xmlns="http://www.w3.org/2000/svg" width="480" height="240" viewBox="0 0 480 240">
  <defs>
    <linearGradient id="grad1" x1="20" y1="20" x2="230" y2="20" gradientUnits="userSpaceOnUse">
      <stop offset="0%" stop-color="#D642CD" />
      <stop offset="50%" stop-color="#8A05FF" />
      <stop offset="100%" stop-color="#4196D0" />
    </linearGradient>
    <radialGradient id="grad2" cx="355" cy="120" r="126" fx="323.5" fy="90" fr="0" gradientUnits="userSpaceOnUse">
      <stop offset="0%" stop-color="#FFE060" />
      <stop offset="60%" stop-color="#E05555" />
      <stop offset="100%" stop-color="#601040" />
    </radialGradient>
  </defs>
  <rect x="0" y="0" width="480" height="240" fill="#F5F5F5" />
  <path d="M 34 20 H 216 A 14 14 0 0 1 230 34 V 206 A 14 14 0 0 1 216 220 H 34 A 14 14 0 0 1 20 206 V 34 A 14 14 0 0 1 34 20 Z " fill="url(#grad1)" fill-rule="nonzero" />
  <path d="M 264 20 H 446 A 14 14 0 0 1 460 34 V 206 A 14 14 0 0 1 446 220 H 264 A 14 14 0 0 1 250 206 V 34 A 14 14 0 0 1 264 20 Z " fill="url(#grad2)" fill-rule="nonzero" />
</svg>
